<?xml version="1.0" encoding="UTF-8" standalone="no"?>
<svg
   xmlns:dc="http://purl.org/dc/elements/1.1/"
   xmlns:cc="http://creativecommons.org/ns#"
   xmlns:rdf="http://www.w3.org/1999/02/22-rdf-syntax-ns#"
   xmlns:svg="http://www.w3.org/2000/svg"
   xmlns="http://www.w3.org/2000/svg"
   xmlns:sodipodi="http://sodipodi.sourceforge.net/DTD/sodipodi-0.dtd"
   xmlns:inkscape="http://www.inkscape.org/namespaces/inkscape"
   width="65"
   height="60"
   viewBox="0 0 210 194"
   class="footer-logo"
   version="1.1"
   id="svg16"
   sodipodi:docname="gitlab1.svg"
   inkscape:version="1.0.2 (e86c870879, 2021-01-15)">
  <metadata
     id="metadata22">
    <rdf:RDF>
      <cc:Work
         rdf:about="">
        <dc:format>image/svg+xml</dc:format>
        <dc:type
           rdf:resource="http://purl.org/dc/dcmitype/StillImage" />
        <dc:title></dc:title>
      </cc:Work>
    </rdf:RDF>
  </metadata>
  <defs
     id="defs20" />
  <sodipodi:namedview
     pagecolor="#ffffff"
     bordercolor="#666666"
     borderopacity="1"
     objecttolerance="10"
     gridtolerance="10"
     guidetolerance="10"
     inkscape:pageopacity="0"
     inkscape:pageshadow="2"
     inkscape:window-width="1366"
     inkscape:window-height="719"
     id="namedview18"
     showgrid="false"
     inkscape:zoom="9.1833333"
     inkscape:cx="32.5"
     inkscape:cy="30"
     inkscape:window-x="0"
     inkscape:window-y="23"
     inkscape:window-maximized="1"
     inkscape:current-layer="svg16" />
  <path
     d="M105.0614,193.655 L105.0614,193.655 L143.7014,74.734 L66.4214,74.734 L105.0614,193.655 L105.0614,193.655 Z"
     fill="#E24329"
     class="logo-svg-shape logo-dark-orange-shape"
     id="path2" />
  <path
     d="M105.0614,193.6548 L66.4214,74.7338 L12.2684,74.7338 L105.0614,193.6548 Z"
     fill="#FC6D26"
     class="logo-svg-shape logo-orange-shape"
     id="path4" />
  <path
     d="M12.2685,74.7341 L12.2685,74.7341 L0.5265,110.8731 C-0.5445,114.1691 0.6285,117.7801 3.4325,119.8171 L105.0615,193.6551 L12.2685,74.7341 Z"
     fill="#FCA326"
     class="logo-svg-shape logo-light-orange-shape"
     id="path6" />
  <path
     d="M12.2685,74.7342 L66.4215,74.7342 L43.1485,3.1092 C41.9515,-0.5768 36.7375,-0.5758 35.5405,3.1092 L12.2685,74.7342 Z"
     fill="#E24329"
     class="logo-svg-shape logo-dark-orange-shape"
     id="path8" />
  <path
     d="M105.0614,193.6548 L143.7014,74.7338 L197.8544,74.7338 L105.0614,193.6548 Z"
     fill="#FC6D26"
     class="logo-svg-shape logo-orange-shape"
     id="path10" />
  <path
     d="M197.8544,74.7341 L197.8544,74.7341 L209.5964,110.8731 C210.6674,114.1691 209.4944,117.7801 206.6904,119.8171 L105.0614,193.6551 L197.8544,74.7341 Z"
     fill="#FCA326"
     class="logo-svg-shape logo-light-orange-shape"
     id="path12" />
  <path
     d="M197.8544,74.7342 L143.7014,74.7342 L166.9744,3.1092 C168.1714,-0.5768 173.3854,-0.5758 174.5824,3.1092 L197.8544,74.7342 Z"
     fill="#E24329"
     class="logo-svg-shape logo-dark-orange-shape"
     id="path14" />
</svg>
