<?xml version="1.0" encoding="UTF-8" standalone="no"?>
<svg
   xmlns:dc="http://purl.org/dc/elements/1.1/"
   xmlns:cc="http://creativecommons.org/ns#"
   xmlns:rdf="http://www.w3.org/1999/02/22-rdf-syntax-ns#"
   xmlns:svg="http://www.w3.org/2000/svg"
   xmlns="http://www.w3.org/2000/svg"
   xmlns:sodipodi="http://sodipodi.sourceforge.net/DTD/sodipodi-0.dtd"
   xmlns:inkscape="http://www.inkscape.org/namespaces/inkscape"
   version="1.1"
   id="Capa_1"
   x="0px"
   y="0px"
   viewBox="0 0 384.97 384.97"
   style="enable-background:new 0 0 384.97 384.97;"
   xml:space="preserve"
   sodipodi:docname="menu.svg"
   inkscape:version="1.0.2 (e86c870879, 2021-01-15)"><metadata
   id="metadata58"><rdf:RDF><cc:Work
       rdf:about=""><dc:format>image/svg+xml</dc:format><dc:type
         rdf:resource="http://purl.org/dc/dcmitype/StillImage" /></cc:Work></rdf:RDF></metadata><defs
   id="defs56" /><sodipodi:namedview
   pagecolor="#ffffff"
   bordercolor="#666666"
   borderopacity="1"
   objecttolerance="10"
   gridtolerance="10"
   guidetolerance="10"
   inkscape:pageopacity="0"
   inkscape:pageshadow="2"
   inkscape:window-width="1366"
   inkscape:window-height="719"
   id="namedview54"
   showgrid="false"
   inkscape:zoom="1.4312804"
   inkscape:cx="192.485"
   inkscape:cy="192.485"
   inkscape:window-x="0"
   inkscape:window-y="23"
   inkscape:window-maximized="1"
   inkscape:current-layer="Capa_1" />
<g
   id="g21"
   style="fill:#ffffff">
	<g
   id="Menu_1_"
   style="fill:#ffffff">
		<path
   d="M12.03,120.303h360.909c6.641,0,12.03-5.39,12.03-12.03c0-6.641-5.39-12.03-12.03-12.03H12.03    c-6.641,0-12.03,5.39-12.03,12.03C0,114.913,5.39,120.303,12.03,120.303z"
   id="path2"
   style="fill:#ffffff" />
		<path
   d="M372.939,180.455H12.03c-6.641,0-12.03,5.39-12.03,12.03s5.39,12.03,12.03,12.03h360.909c6.641,0,12.03-5.39,12.03-12.03    S379.58,180.455,372.939,180.455z"
   id="path4"
   style="fill:#ffffff" />
		<path
   d="M372.939,264.667H132.333c-6.641,0-12.03,5.39-12.03,12.03c0,6.641,5.39,12.03,12.03,12.03h240.606    c6.641,0,12.03-5.39,12.03-12.03C384.97,270.056,379.58,264.667,372.939,264.667z"
   id="path6"
   style="fill:#ffffff" />
	</g>
	<g
   id="g9"
   style="fill:#ffffff">
	</g>
	<g
   id="g11"
   style="fill:#ffffff">
	</g>
	<g
   id="g13"
   style="fill:#ffffff">
	</g>
	<g
   id="g15"
   style="fill:#ffffff">
	</g>
	<g
   id="g17"
   style="fill:#ffffff">
	</g>
	<g
   id="g19"
   style="fill:#ffffff">
	</g>
</g>
<g
   id="g23">
</g>
<g
   id="g25">
</g>
<g
   id="g27">
</g>
<g
   id="g29">
</g>
<g
   id="g31">
</g>
<g
   id="g33">
</g>
<g
   id="g35">
</g>
<g
   id="g37">
</g>
<g
   id="g39">
</g>
<g
   id="g41">
</g>
<g
   id="g43">
</g>
<g
   id="g45">
</g>
<g
   id="g47">
</g>
<g
   id="g49">
</g>
<g
   id="g51">
</g>
</svg>
